<svg xml:space="preserve" viewBox="5.46719196 18.344827586206897 249.24 250.22988505747125" y="0px" x="0px" version="1.1" xmlns:xlink="http://www.w3.org/1999/xlink" xmlns="http://www.w3.org/2000/svg">
<style type="text/css">
	.st1{fill:#ffffff;}
</style>
<g id="Layer_3">
	<g>
		<path d="M185.8,61.9c0,0-105.6,0-119.4,0c-13.8,0-16.5,16.5-16.5,16.5v121c0,0,61-61,66.8-66.8    c5.8-5.8,11.7-1.8,11.7-1.8s12.2,12.2,16.5,16.5c4.3,4.3,0,9.3,0,9.3l-68.8,68.8c0,0,110.6,0,122.7,0c14-3,14.6-14.8,14.6-14.8    V88.9l36.4-36.4c0,0,0,180.6,0,188.5c-3.4,19.1-19.8,20.7-19.8,20.7s-193.5,0-204.3,0c-12.1-2-12.3-14.8-12.3-14.8V49.2    c2.3-22.8,22.9-23.8,22.9-23.8h186.5L185.8,61.9z M91.8,90c0-3.6-2.9-6.5-6.5-6.5H74.1c-3.6,0-6.5,2.9-6.5,6.5v11.1    c0,3.6,2.9,6.5,6.5,6.5h11.1c3.6,0,6.5-2.9,6.5-6.5V90z M141.5,86.2c0-3.5-2.9-6.4-6.4-6.4h-18.9c-3.5,0-6.4,2.9-6.4,6.4v18.9    c0,3.5,2.9,6.4,6.4,6.4h18.9c3.5,0,6.4-2.9,6.4-6.4V86.2z M196.8,82.7c0-3.5-2.9-6.4-6.4-6.4h-24.9c-3.5,0-6.4,2.9-6.4,6.4v24.9    c0,3.5,2.9,6.4,6.4,6.4h24.9c3.5,0,6.4-2.9,6.4-6.4V82.7z M193.8,138.2c0-3.5-2.9-6.4-6.4-6.4h-18.9c-3.5,0-6.4,2.9-6.4,6.4v18.9    c0,3.5,2.9,6.4,6.4,6.4h18.9c3.5,0,6.4-2.9,6.4-6.4V138.2z M190.7,187.9c0-3.6-2.9-6.5-6.5-6.5H173c-3.6,0-6.5,2.9-6.5,6.5v11.1    c0,3.6,2.9,6.5,6.5,6.5h11.1c3.6,0,6.5-2.9,6.5-6.5V187.9z" class="st1"/>
	</g>
</g>
</svg>