<?xml version="1.0" encoding="utf-8"?>
<svg version="1.1" xmlns="http://www.w3.org/2000/svg" xmlns:xlink="http://www.w3.org/1999/xlink" x="0px" y="0px"
	 viewBox="0 0 804 280" style="enable-background:new 0 0 804 280;" xml:space="preserve">
<style type="text/css">
	.st0{display:none;}
	.st1{fill:#FFFFFF;}
</style>
<g id="Layer_3">
	<g>
		<path class="st1" d="M185.8,61.9c0,0-105.6,0-119.4,0c-13.8,0-16.5,16.5-16.5,16.5v121c0,0,61-61,66.8-66.8
			c5.8-5.8,11.7-1.8,11.7-1.8s12.2,12.2,16.5,16.5c4.3,4.3,0,9.3,0,9.3l-68.8,68.8c0,0,110.6,0,122.7,0c14-3,14.6-14.8,14.6-14.8
			V88.9l36.4-36.4c0,0,0,180.6,0,188.5c-3.4,19.1-19.8,20.7-19.8,20.7s-193.5,0-204.3,0c-12.1-2-12.3-14.8-12.3-14.8V49.2
			c2.3-22.8,22.9-23.8,22.9-23.8h186.5L185.8,61.9z M91.8,90c0-3.6-2.9-6.5-6.5-6.5H74.1c-3.6,0-6.5,2.9-6.5,6.5v11.1
			c0,3.6,2.9,6.5,6.5,6.5h11.1c3.6,0,6.5-2.9,6.5-6.5V90z M141.5,86.2c0-3.5-2.9-6.4-6.4-6.4h-18.9c-3.5,0-6.4,2.9-6.4,6.4v18.9
			c0,3.5,2.9,6.4,6.4,6.4h18.9c3.5,0,6.4-2.9,6.4-6.4V86.2z M196.8,82.7c0-3.5-2.9-6.4-6.4-6.4h-24.9c-3.5,0-6.4,2.9-6.4,6.4v24.9
			c0,3.5,2.9,6.4,6.4,6.4h24.9c3.5,0,6.4-2.9,6.4-6.4V82.7z M193.8,138.2c0-3.5-2.9-6.4-6.4-6.4h-18.9c-3.5,0-6.4,2.9-6.4,6.4v18.9
			c0,3.5,2.9,6.4,6.4,6.4h18.9c3.5,0,6.4-2.9,6.4-6.4V138.2z M190.7,187.9c0-3.6-2.9-6.5-6.5-6.5H173c-3.6,0-6.5,2.9-6.5,6.5v11.1
			c0,3.6,2.9,6.5,6.5,6.5h11.1c3.6,0,6.5-2.9,6.5-6.5V187.9z"/>
		<polygon class="st1" points="321.3,129.1 268.3,129.1 268.3,212 321.3,212 321.3,196.5 282.6,196.5 282.6,177.7 311.8,177.7
			311.8,162.1 282.7,162.1 282.7,144.7 321.3,144.7 		"/>
		<polygon class="st1" points="348.2,212 348.2,143.1 352,143.1 377.7,177.1 403.2,143.1 407.3,143.1 407.3,212 395.5,212
			395.5,172.4 377.7,195 359.8,172.2 359.8,212 		"/>
		<rect x="430.8" y="142.8" class="st1" width="11.5" height="69.2"/>
		<path class="st1" d="M493.8,143c18,0,18.1,16.3,18.1,16.3v6.7c-0.5,12.6-10.8,15.9-10.8,15.9l15.1,29.9h-13.7l-14.7-28.7h-10.9
			v28.7h-11.8V143C465.1,143,475.8,143,493.8,143z M476.9,155.7v14.6h18.6c0,0,5.5-0.6,5.5-5.9c0-5.4,0-2.8,0-2.8s0.4-6-5.5-6
			S476.9,155.7,476.9,155.7z"/>
		<path class="st1" d="M530.2,211.8l23.6-68.5h12l23.6,68.5h-12.6l-3.6-10.4h-26.8l-3.6,10.4H530.2z M569,187.3l-8.7-25.9l-9.2,25.9
			H569z"/>
		<polygon class="st1" points="606.3,142.8 658.8,142.8 658.8,155.9 638.5,155.9 638.5,211.8 626.3,211.8 626.3,156 606.3,156 		"/>
		<polygon class="st1" points="677.7,142.8 721.8,142.8 721.8,155.9 689.9,155.9 689.9,170.6 713.7,170.6 713.7,183.3 689.8,183.3
			689.8,199.1 721.8,199.1 721.8,211.8 677.7,211.8 		"/>
		<path class="st1" d="M777.7,161.5l8.1-9.3c0,0-5.8-9.8-20.6-9c0,0-12.7-0.2-19.2,9.6c-3.2,5.4-2.9,10.6-2.9,10.6
			s-0.6,6.1,2.3,10.3c2.8,4.2,7.8,6.8,13,8.3c0,0,2,0.6,4,0.6c0,0,8.8,0.5,10.1,5.3c1.6,3.4,1,9.2-4.8,10.7
			c-5.7,1.4-14.6,0.4-19.3-5.8l-8,9.1c0,0,8.2,11,23.3,10c15.1-0.9,21.7-9.1,22.6-19.8c0.9-10.7-6.7-19.1-18.6-21
			c-11.9-1.9-11.9-6.2-11.9-7.8s1.1-8.1,10.2-7.4C773,155.7,775.1,158.2,777.7,161.5z"/>
		<polygon class="st1" points="412.9,235.9 388.7,235.9 388.7,274.1 412.9,274.1 412.9,267 395.2,267 395.2,258.3 408.6,258.3
			408.6,251.1 395.3,251.1 395.3,243.1 412.9,243.1 		"/>
		<polygon class="st1" points="318.7,242.6 299,242.6 299,273.7 318.7,273.7 318.7,267.9 304.3,267.9 304.3,260.8 315.2,260.8
			315.2,255 304.4,255 304.4,248.4 318.7,248.4 		"/>
		<polygon class="st1" points="544.4,242.9 524.7,242.9 524.7,274 544.4,274 544.4,268.2 530,268.2 530,261.2 540.8,261.2
			540.8,255.3 530,255.3 530,248.8 544.4,248.8 		"/>
		<rect x="697.8" y="243" class="st1" width="5.3" height="31.1"/>
		<path class="st1" d="M284.2,235.9c10,0,10,9,10,9v3.7c-0.3,7-6,8.8-6,8.8l8.3,16.6H289l-8.1-15.9h-6V274h-6.5v-38.1
			C268.3,235.9,274.3,235.9,284.2,235.9z M274.9,242.9v8.1h10.3c0,0,3-0.3,3-3.3c0-3,0-1.5,0-1.5s0.2-3.3-3.1-3.3
			C281.8,242.9,274.9,242.9,274.9,242.9z"/>
		<path class="st1" d="M322.6,274.1l10.8-31.1h5.5l10.8,31.1h-5.8l-1.7-4.7H330l-1.7,4.7H322.6z M340.3,263l-4-11.7l-4.2,11.7H340.3
			z"/>
		<path class="st1" d="M467.1,274.1l10.8-31.1h5.5l10.8,31.1h-5.8l-1.7-4.7h-12.2l-1.7,4.7H467.1z M484.8,263l-4-11.7l-4.2,11.7
			H484.8z"/>
		<polygon class="st1" points="670.4,242.5 693.8,242.5 693.8,248.5 684.7,248.5 684.7,273.9 679.3,273.9 679.3,248.5 670.4,248.5
					"/>
		<polygon class="st1" points="497.2,242.5 520.5,242.5 520.5,248.5 511.5,248.5 511.5,273.9 506.1,273.9 506.1,248.5 497.2,248.5
					"/>
		<polygon class="st1" points="441.3,242.5 464.7,242.5 464.7,248.5 455.7,248.5 455.7,273.9 450.2,273.9 450.2,248.5 441.3,248.5
					"/>
		<path class="st1" d="M782.8,251.3l3.6-4.2c0,0-2.6-4.4-9.1-4c0,0-5.6-0.1-8.5,4.3c-1.4,2.4-1.3,4.8-1.3,4.8s-0.2,2.7,1,4.6
			c1.2,1.9,3.4,3.1,5.8,3.7c0,0,0.9,0.3,1.8,0.3c0,0,3.9,0.2,4.5,2.4c0.7,1.5,0.4,4.2-2.1,4.8c-2.5,0.6-6.5,0.2-8.5-2.6l-3.5,4.1
			c0,0,3.6,4.9,10.3,4.5c6.7-0.4,9.6-4.1,10-8.9c0.4-4.8-3-8.6-8.2-9.4c-5.2-0.8-5.3-2.8-5.3-3.5c0-0.7,0.5-3.6,4.5-3.3
			C780.7,248.7,781.6,249.8,782.8,251.3z"/>
		<path class="st1" d="M433.9,251.3l3.6-4.2c0,0-2.6-4.4-9.1-4c0,0-5.6-0.1-8.5,4.3c-1.4,2.4-1.3,4.8-1.3,4.8s-0.2,2.7,1,4.6
			c1.2,1.9,3.4,3.1,5.8,3.7c0,0,0.9,0.3,1.8,0.3c0,0,3.9,0.2,4.5,2.4c0.7,1.5,0.4,4.2-2.1,4.8c-2.5,0.6-6.5,0.2-8.5-2.6l-3.5,4.1
			c0,0,3.6,4.9,10.3,4.5c6.7-0.4,9.6-4.1,10-8.9c0.4-4.8-3-8.6-8.2-9.4s-5.3-2.8-5.3-3.5c0-0.7,0.5-3.6,4.5-3.3
			C431.8,248.7,432.8,249.8,433.9,251.3z"/>
		<path class="st1" d="M578.1,246.1l4.4-5.1c0,0-3.1-5.4-11.1-4.9c0,0-6.8-0.1-10.3,5.3c-1.7,3-1.6,5.8-1.6,5.8s-0.3,3.4,1.2,5.6
			c1.5,2.3,4.2,3.7,7,4.6c0,0,1.1,0.3,2.2,0.3c0,0,4.8,0.3,5.5,2.9c0.9,1.9,0.5,5.1-2.6,5.9c-3.1,0.8-7.9,0.2-10.4-3.2l-4.3,5
			c0,0,4.4,6,12.6,5.5c8.2-0.5,11.7-5,12.2-10.8c0.5-5.9-3.6-10.5-10-11.5c-6.4-1-6.4-3.4-6.4-4.3c0-0.9,0.6-4.4,5.5-4.1
			C575.6,242.9,576.8,244.3,578.1,246.1z"/>
		<polygon class="st1" points="354,242.6 354,274 373.6,274 373.6,268.4 359.1,268.4 359.1,242.6 		"/>
		<polygon class="st1" points="618.3,242.4 618.3,273.9 637.9,273.9 637.9,268.2 623.3,268.2 623.3,242.4 		"/>
		<path class="st1" d="M609.2,258.3c0,5.4-3.8,9.8-8.5,9.8c-4.7,0-8.5-4.4-8.5-9.8c0-5.4,3.8-9.8,8.5-9.8
			C605.4,248.5,609.2,252.9,609.2,258.3z M600.9,242.7c-7.5,0-13.6,7-13.6,15.7s6.1,15.7,13.6,15.7c7.5,0,13.6-7,13.6-15.7
			S608.3,242.7,600.9,242.7z"/>
		<path class="st1" d="M729,258.5c0,5.4-3.8,9.8-8.5,9.8c-4.7,0-8.5-4.4-8.5-9.8c0-5.4,3.8-9.8,8.5-9.8
			C725.2,248.6,729,253,729,258.5z M720.6,242.8c-7.5,0-13.6,7-13.6,15.7c0,8.7,6.1,15.7,13.6,15.7c7.5,0,13.6-7,13.6-15.7
			C734.2,249.8,728.1,242.8,720.6,242.8z"/>
		<path class="st1" d="M642.5,242.5v22.9c0,0,0.7,8.5,11.5,8.5c10.8,0,11.3-8.8,11.3-8.8v-22.6h-5.1v19.9c0,0,0,5.6-6.3,5.6
			s-6.4-6-6.4-6v-19.5H642.5z"/>
		<polygon class="st1" points="738.1,273.9 738.1,242.8 739.8,242.8 756.7,262.5 756.7,242.8 761.8,242.8 761.8,273.9 760.1,273.9
			743.1,254.6 743.1,273.9 		"/>
	</g>
</g>
</svg>
